<?xml version="1.0" encoding="utf-8"?><!-- Uploaded to: SVG Repo, www.svgrepo.com, Generator: SVG Repo Mixer Tools -->
<svg width="800px" height="800px" viewBox="0 0 400 400" fill="none" xmlns="http://www.w3.org/2000/svg">
<path opacity="0.503384" d="M200.212 96.7177C194.057 90.3992 188.867 74.9367 200.212 70.27C207.513 67.2642 211.694 96.2393 215.21 89.0031C217.199 84.9171 230.656 43.9096 235.567 69.1688C236.676 74.8615 227.686 80.5031 230.211 85.6963C230.337 85.9581 245.221 76.3539 248.424 84.5951C255.109 101.785 229.772 103.328 220.569 103.328" stroke="#000000" stroke-opacity="0.9" stroke-width="12" stroke-linecap="round" stroke-linejoin="round"/>
<path opacity="0.503384" d="M227.293 158.918C225.691 124.699 236.026 153.597 239.823 153.597C240.983 153.597 247.393 134.452 258.62 134.452C279.105 134.452 248.333 158.759 252.353 154.663C259.897 146.975 274.854 189.597 245.043 170.617" stroke="#000000" stroke-opacity="0.9" stroke-width="12" stroke-linecap="round" stroke-linejoin="round"/>
<path opacity="0.503384" d="M171.265 150.595C165.259 153.078 154.373 155.943 150.987 147.338C145.071 132.298 166.183 133.797 165.929 134.316C162.712 140.858 157.639 117.784 162.727 112.611C166.5 108.774 166.996 125.634 172.331 125.634C177.938 125.634 182.941 103.155 188.341 122.377C188.993 130.671 188.338 132.87 180.869 135.4" stroke="#000000" stroke-opacity="0.9" stroke-width="12" stroke-linecap="round" stroke-linejoin="round"/>
<path opacity="0.503384" d="M155.175 223.647C149.927 227.527 138.483 228.559 136.057 220.406C129.689 199.001 154.226 205.117 152.927 206.367C145.429 213.568 142.017 191.623 151.803 186.926C156.462 184.688 155.992 203.421 159.673 199.886C173.215 186.885 179.467 197.008 166.423 207.446" stroke="#000000" stroke-opacity="0.9" stroke-width="12" stroke-linecap="round" stroke-linejoin="round"/>
<path d="M204.718 112.043C201.309 127.395 198.287 142.621 197.005 158.503C193.268 204.822 203.959 252.221 201.827 299.207C201.293 310.95 193.231 351.974 197.005 336.375" stroke="#000000" stroke-opacity="0.9" stroke-width="16" stroke-linecap="round" stroke-linejoin="round"/>
<path d="M168.615 226.578C180.851 236.281 188.31 247.812 199.738 257.701" stroke="#000000" stroke-opacity="0.9" stroke-width="16" stroke-linecap="round" stroke-linejoin="round"/>
<path d="M197.249 187.984C209.688 179.474 219.637 168.119 232.107 160.596" stroke="#000000" stroke-opacity="0.9" stroke-width="16" stroke-linecap="round" stroke-linejoin="round"/>
<path d="M188.531 150.636C190.737 152.502 192.68 154.787 194.755 156.861" stroke="#000000" stroke-opacity="0.9" stroke-width="16" stroke-linecap="round" stroke-linejoin="round"/>
</svg>