<svg width="508" height="800" viewBox="0 0 508 800" fill="none" xmlns="http://www.w3.org/2000/svg">
<path d="M262.562 339.021C262.127 322.475 262.562 306.364 264.305 289.818C276.062 290.689 288.254 289.383 300.444 286.335C303.494 289.818 308.717 291.56 312.636 287.205C313.943 285.899 316.12 283.722 318.297 281.109C320.474 282.416 323.524 282.851 326.57 280.674C434.557 204.038 370.984 93.4394 314.378 4.17643C309.59 -3.22586 298.703 -0.177859 297.832 8.53072C292.171 90.8268 189.845 123.049 187.668 207.522C187.233 226.245 192.022 241.485 199.86 253.677C201.167 267.176 213.794 274.578 227.292 278.497C233.388 281.545 239.484 284.593 246.016 286.335C244.274 302.881 244.709 319.863 246.016 336.844C181.137 330.748 119.741 332.49 84.9069 341.199C83.6006 339.022 80.5526 338.151 77.9401 340.328C5.66026 400.852 -33.9652 567.186 53.5575 630.76C57.0409 633.373 62.7015 631.63 64.4432 627.711C68.362 621.18 71.8455 614.213 74.8935 607.681C72.7163 650.353 75.3289 692.59 94.0524 730.037C127.145 797.528 227.729 801.447 291.302 799.706C450.669 795.351 442.396 646.87 427.591 526.691C435.863 533.223 444.573 545.85 449.363 551.077C451.975 553.689 456.765 553.689 459.377 551.077C586.958 421.753 419.316 356.874 262.562 339.021ZM247.757 271.095C234.695 265.434 223.809 256.29 216.407 244.098C216.842 243.227 217.713 242.356 218.148 241.485C222.938 235.825 228.599 231.035 234.695 227.116C246.016 219.714 258.643 213.618 271.706 208.828C259.079 228.422 251.242 249.323 247.757 271.095ZM266.045 276.755C269.964 253.677 276.931 231.035 288.688 207.086C289.559 205.78 289.559 204.474 289.559 203.168C303.928 199.249 320.908 195.765 333.972 197.942C340.068 198.813 342.681 200.12 345.294 202.732C345.294 202.732 345.729 203.603 346.163 204.474C346.163 204.474 347.034 206.651 347.034 207.086C346.598 204.909 347.034 208.828 347.034 209.699C347.034 210.134 347.034 211.441 346.598 213.182C340.936 237.131 317.425 258.903 300.442 275.449C300.442 275.449 300.442 275.884 300.006 275.884C288.688 278.497 276.933 278.497 266.045 276.755ZM206.829 188.798C212.054 158.318 240.357 133.063 260.385 111.727C283.027 87.7788 302.623 62.9594 310.896 32.4793C344.858 86.4726 380.128 149.61 364.017 204.909C363.148 196.636 358.792 189.669 348.342 184.88C333.537 178.348 315.684 180.525 300.009 183.573C281.285 187.492 262.127 194.459 244.709 203.169C233.388 209.265 218.584 217.538 209.004 228.859C205.087 217.537 204.215 204.038 206.829 188.798ZM291.3 780.547C218.148 785.772 122.789 772.709 99.7115 691.719C83.6006 634.678 96.2281 566.316 93.1801 507.533C93.1801 504.049 90.1321 502.743 87.5195 503.178C89.2612 497.953 91.4384 493.163 94.0509 487.938C99.7115 477.487 105.372 468.343 113.645 481.407C122.354 494.904 125.837 512.756 129.321 528.433C136.288 557.17 141.948 587.652 142.819 616.825C142.819 621.18 147.609 625.969 152.398 624.226C212.052 599.842 195.506 532.352 237.307 497.081C238.178 521.029 242.532 554.122 269.092 554.993C296.09 555.862 307.411 507.967 310.458 487.066C329.617 514.933 349.211 539.753 361.403 571.975C363.58 578.071 370.548 578.506 374.03 573.718C378.82 567.185 399.285 545.85 408.431 533.658C422.366 642.516 434.123 769.661 291.3 780.547ZM424.542 506.226C421.929 495.342 404.512 495.342 405.82 507.097C405.82 507.968 405.82 508.403 406.255 509.274C398.417 524.077 376.644 561.96 367.502 547.157C352.699 523.208 334.409 502.741 316.992 480.536C315.25 478.359 312.204 479.23 310.898 480.971C309.154 477.488 303.058 477.923 301.752 482.278C295.657 500.567 290.868 518.854 278.674 534.531C256.032 563.704 250.807 487.94 250.807 483.584C250.807 478.359 245.146 475.312 240.792 477.923C190.718 507.097 204.216 577.201 157.625 604.198C155.448 559.784 147.175 505.355 124.097 469.215C116.259 456.587 104.067 455.281 92.7461 463.99C68.362 483.584 70.5392 511.451 80.9895 534.965C79.2478 554.994 77.0706 575.46 75.3289 595.925C73.5872 594.618 70.9746 594.183 69.2329 596.36C32.6569 639.032 22.2066 520.597 23.5128 496.211C26.5609 448.314 44.8489 395.627 74.8935 356.874C76.6352 359.051 79.2478 359.922 82.7312 359.051C132.806 344.247 190.718 344.682 246.888 350.778C250.371 377.775 256.032 404.336 262.128 430.026C263.87 436.993 273.449 433.945 272.143 427.414C267.787 401.288 264.305 376.904 262.563 352.955C292.174 356.874 321.348 362.099 347.909 367.76C392.758 376.904 441.089 391.708 475.49 423.93C499.001 446.137 495.518 475.311 481.584 501.437C459.377 544.109 448.49 530.61 424.542 506.226Z" fill="black" stroke="black" stroke-width="6"/>
</svg>
