<?xml version="1.0" encoding="iso-8859-1"?>
<!-- Uploaded to: SVG Repo, www.svgrepo.com, Generator: SVG Repo Mixer Tools -->
<svg fill="#000000" height="800px" width="800px" version="1.1" id="Layer_1" xmlns="http://www.w3.org/2000/svg" xmlns:xlink="http://www.w3.org/1999/xlink" 
	 viewBox="0 0 512 512" xml:space="preserve">
<g>
	<g>
		<path d="M263.434,311.362c-0.184-0.901-0.451-1.788-0.803-2.632c-0.352-0.846-0.79-1.663-1.295-2.436
			c-0.507-0.76-1.098-1.492-1.746-2.14c-0.648-0.648-1.366-1.24-2.14-1.746c-0.762-0.507-1.578-0.943-2.436-1.295
			c-0.845-0.352-1.732-0.62-2.633-0.803c-1.816-0.366-3.689-0.366-5.505,0c-0.887,0.183-1.774,0.451-2.633,0.803
			c-0.845,0.352-1.661,0.788-2.422,1.295c-0.774,0.505-1.493,1.098-2.14,1.746c-0.648,0.648-1.239,1.379-1.746,2.14
			c-0.521,0.774-0.943,1.591-1.295,2.436c-0.352,0.845-0.634,1.73-0.803,2.632c-0.183,0.915-0.282,1.832-0.282,2.761
			c0,0.914,0.099,1.83,0.282,2.744c0.169,0.903,0.451,1.79,0.803,2.633c0.352,0.846,0.774,1.663,1.295,2.436
			c0.507,0.76,1.098,1.492,1.746,2.14s1.366,1.239,2.14,1.746c0.76,0.507,1.577,0.943,2.422,1.295
			c0.859,0.352,1.746,0.62,2.647,0.803c0.901,0.183,1.83,0.282,2.746,0.282s1.845-0.099,2.746-0.282
			c0.901-0.183,1.788-0.451,2.633-0.803c0.859-0.352,1.676-0.788,2.436-1.295c0.774-0.507,1.492-1.098,2.14-1.746
			s1.239-1.378,1.746-2.14c0.505-0.774,0.943-1.591,1.295-2.436c0.352-0.845,0.618-1.731,0.803-2.633
			c0.183-0.914,0.28-1.83,0.28-2.744C263.714,313.194,263.617,312.277,263.434,311.362z"/>
	</g>
</g>
<g>
	<g>
		<path d="M497.92,125.403c-7.775,0-14.08,6.305-14.08,14.08v7.123H354.955c-0.108,0-0.215-0.008-0.325-0.008h-24.268v-16.619
			h12.672c7.775,0,14.08-6.305,14.08-14.08s-6.305-14.08-14.08-14.08H221.239c-7.777,0-14.08,6.305-14.08,14.08
			s6.304,14.08,14.08,14.08h14.316v16.619h-28.921c-1.152-0.304-2.36-0.466-3.607-0.466h-12.177
			C120.454,142.159,23.395,71.76,22.398,71.03c-4.28-3.131-9.956-3.593-14.687-1.195C2.981,72.234,0,77.088,0,82.392v235.052
			c0,5.287,2.963,10.127,7.67,12.534c2.023,1.034,4.221,1.545,6.411,1.545c2.906,0,5.798-0.9,8.243-2.664
			c0.712-0.514,49.349-35.341,102.225-57.458v86.489c0,47.309,38.487,85.798,85.796,85.798H354.63
			c47.309,0,85.796-38.489,85.796-85.798V232.395c0-0.092-0.007-0.18-0.007-0.272h43.42v5.22c0,7.775,6.305,14.08,14.08,14.08
			s14.08-6.305,14.08-14.08v-97.859C512,131.707,505.695,125.403,497.92,125.403z M263.714,129.979h38.487v16.619h-38.487V129.979z
			 M150.493,232.53c-5.355,1.493-10.839,3.191-16.478,5.146c-0.192,0.066-0.376,0.146-0.563,0.22
			c-41.16,14.334-81.305,37.785-105.291,53.121V108.97c33.51,21.605,98.545,59.036,154.675,64.762v10.182h-58.713
			c-7.777,0-14.08,6.305-14.08,14.08c0,7.775,6.304,14.08,14.08,14.08h58.711v14.049c-1.019,0.107-2.066,0.252-3.102,0.38
			c-0.729,0.091-1.453,0.166-2.185,0.268c-1.156,0.161-2.335,0.353-3.509,0.541c-0.636,0.101-1.271,0.191-1.909,0.3
			c-1.247,0.213-2.515,0.456-3.782,0.698c-0.559,0.107-1.117,0.206-1.677,0.32c-1.34,0.268-2.699,0.563-4.061,0.866
			c-0.469,0.104-0.936,0.204-1.407,0.311c-1.439,0.328-2.894,0.68-4.355,1.045c-0.359,0.09-0.718,0.179-1.079,0.27
			c-1.553,0.396-3.119,0.811-4.697,1.246C150.879,232.422,150.686,232.477,150.493,232.53z M412.264,357.89L412.264,357.89
			c0,31.781-25.855,57.637-57.635,57.637H210.343c-31.78,0-57.635-25.855-57.635-57.637v-96.695
			c13.248-4.044,25.319-6.499,36.071-7.343c0.055-0.004,0.11-0.008,0.165-0.013v86.866c0,21.273,17.308,38.58,38.582,38.58h88.727
			c0.008,0,0.018,0.001,0.027,0.001c0.008,0,0.018-0.001,0.027-0.001h21.138c21.274,0,38.583-17.308,38.583-38.58v-101.55
			c0-7.775-6.305-14.08-14.08-14.08H210.997V174.76H354.63c0.052,0,0.103,0.004,0.154,0.004c0.027,0,0.053,0.004,0.08,0.004
			c1.629,0.007,3.246,0.086,4.846,0.228c0.079,0.007,0.159,0.011,0.238,0.018c0.759,0.07,1.512,0.159,2.263,0.259
			c0.09,0.013,0.18,0.023,0.27,0.035c0.796,0.11,1.587,0.235,2.373,0.377c0.006,0,0.013,0.001,0.018,0.003
			c12.129,2.205,23.092,8.257,31.412,16.936c0.114,0.12,0.228,0.238,0.341,0.358c0.411,0.435,0.812,0.879,1.21,1.326
			c0.22,0.249,0.436,0.5,0.652,0.753c0.308,0.359,0.612,0.721,0.911,1.088c0.327,0.401,0.645,0.81,0.96,1.221
			c0.19,0.246,0.382,0.49,0.568,0.739c3.258,4.389,5.912,9.254,7.829,14.47c0.003,0.01,0.007,0.02,0.011,0.03
			c2.263,6.173,3.499,12.837,3.499,19.784V357.89z M249.634,285.956c7.777,0,14.08-6.305,14.08-14.08v-18.638h38.487v97.89h-74.673
			c-5.746,0-10.421-4.673-10.421-10.42v-87.471h18.447v18.638C235.553,279.652,241.857,285.956,249.634,285.956z M330.362,351.127
			v-97.89h17.506v87.471c0,5.746-4.675,10.42-10.422,10.42H330.362z M483.311,203.962h-0.001h-47.717
			c-0.084-0.241-0.184-0.473-0.272-0.712c-0.158-0.435-0.33-0.863-0.493-1.294c-0.342-0.9-0.687-1.797-1.059-2.681
			c-0.165-0.393-0.344-0.777-0.514-1.167c-0.393-0.898-0.789-1.795-1.212-2.677c-0.193-0.403-0.401-0.794-0.6-1.193
			c-0.421-0.843-0.842-1.688-1.29-2.515c-0.272-0.501-0.562-0.99-0.843-1.485c-0.398-0.701-0.789-1.407-1.207-2.095
			c-0.468-0.773-0.962-1.526-1.452-2.284c-0.252-0.387-0.491-0.784-0.748-1.166c-2.349-3.498-4.942-6.816-7.765-9.924h65.173
			V203.962z"/>
	</g>
</g>
<g>
	<g>
		<path d="M95.693,195.239c-0.183-0.898-0.451-1.785-0.803-2.632c-0.352-0.845-0.788-1.674-1.295-2.435
			c-0.521-0.76-1.112-1.494-1.76-2.142c-3.267-3.265-8.124-4.759-12.701-3.843c-0.901,0.183-1.788,0.449-2.633,0.801
			c-0.859,0.352-1.676,0.79-2.436,1.297c-0.774,0.505-1.492,1.097-2.14,1.745c-0.648,0.648-1.239,1.38-1.746,2.142
			c-0.507,0.762-0.943,1.591-1.295,2.435c-0.352,0.846-0.62,1.732-0.803,2.633c-0.183,0.903-0.282,1.83-0.282,2.746
			s0.099,1.845,0.282,2.76c0.183,0.901,0.451,1.774,0.803,2.633c0.352,0.845,0.789,1.661,1.295,2.422
			c0.507,0.774,1.098,1.494,1.746,2.154c0.648,0.648,1.366,1.239,2.14,1.746c0.76,0.505,1.577,0.943,2.436,1.295
			c0.845,0.352,1.732,0.618,2.633,0.801c0.901,0.184,1.83,0.268,2.746,0.268c3.703,0,7.336-1.492,9.955-4.111
			c0.648-0.662,1.239-1.38,1.76-2.154c0.507-0.76,0.943-1.577,1.295-2.422c0.352-0.859,0.62-1.732,0.803-2.633
			c0.183-0.915,0.268-1.844,0.268-2.76C95.961,197.07,95.877,196.141,95.693,195.239z"/>
	</g>
</g>
</svg>