<svg width="184" height="224" viewBox="0 0 184 224" fill="none" xmlns="http://www.w3.org/2000/svg">
<path d="M54.6941 44.0385C55.4835 42.6351 54.4227 43.8157 53.8292 44.4092C52.7345 45.5039 51.4364 46.3611 50.3834 47.4843C48.2321 49.7791 45.7012 51.7804 43.7114 54.225C41.6536 56.7531 40.7096 59.8009 39.0163 62.5718C36.6541 66.4373 36.3707 70.5577 35.1174 74.7352C34.0462 78.306 34.5172 82.414 33.8132 86.0748C33.0223 90.1878 33.4426 94.322 33.4426 98.4578C33.4426 101.822 34.6348 105.976 33.8132 109.262C33.5168 110.448 33.2511 112.061 33.1955 113.284C33.113 115.099 32.207 116.813 32.207 118.666" stroke="white" stroke-width="3" stroke-linecap="round"/>
<path d="M33.4425 118.419C31.073 117.752 35.3597 118.172 36.1608 118.172" stroke="white" stroke-width="3" stroke-linecap="round"/>
<path d="M36.9026 117.925C36.7318 117.604 35.8597 120.752 35.4199 121.631" stroke="white" stroke-width="3" stroke-linecap="round"/>
<path d="M35.9139 121.631C34.5704 120.557 38.3893 124.03 39.7441 125.091C42.0159 126.869 43.9124 128.225 46.5397 129.539" stroke="white" stroke-width="3" stroke-linecap="round"/>
<path d="M36.9024 18.3389C37.3977 16.6407 35.6125 19.3334 35.4197 20.0138C34.8483 22.0305 34.2343 24.028 33.69 26.0543C32.4053 30.8361 30.3147 36.673 31.7131 41.5673" stroke="white" stroke-width="3" stroke-linecap="round"/>
<path d="M37.3963 17.3505C36.3745 21.6929 40.2256 25.7973 42.6954 29.0745C44.5246 31.5016 46.2663 33.761 47.8848 36.3505C49.5496 39.0142 51.8482 41.9175 52.47 45.0269" stroke="white" stroke-width="3" stroke-linecap="round"/>
<path d="M34.1839 12.9025C33.6562 11.5537 33.0379 13.6403 32.6738 14.2067C31.7911 15.5798 30.5585 17.956 30 19.5C27.856 25.4276 26.5 36.4763 26.5 42.5C26.5 48.5237 26.803 49.8431 27.5 56C28.349 63.5 30.0561 71.4643 34.1839 78" stroke="white" stroke-width="3" stroke-linecap="round"/>
<path d="M34.4312 11.9141C34.5548 12.9036 40.4619 14.3714 41.515 14.9343C45.4518 17.0385 49.5862 19.5589 53.088 22.3339C59.8023 27.6546 65.288 33.7931 69.768 41.0731" stroke="white" stroke-width="3" stroke-linecap="round"/>
<path d="M68.5323 37.6135C66.9532 37.6135 71.88 37.8054 73.2274 36.982C75.3834 35.6644 76.9704 33.2989 78.2932 31.3122C79.4998 29.5 79.8534 28.6435 80.4998 27.5C80.9522 26.6995 81.1758 24.2549 81.6292 25.6149C82.0825 26.9749 81.6438 29.0972 81.8214 30.5571C82.0101 32.1087 82.3617 33.6071 82.6176 35.1424" stroke="white" stroke-width="3" stroke-linecap="round"/>
<path d="M83 35.0325C84.3938 33.6372 85.8781 32.4705 86.5 31.9999C87.3129 30.9999 88.8776 28.7979 88 29.5C87.2474 30.1021 87.5112 34.1141 87.3129 35.0325C86.6813 37.958 84.266 39.3922 81.8765 40.8259" stroke="white" stroke-width="3" stroke-linecap="round"/>
<path d="M87.5 36.5C90.5 34.6619 92.9923 34.662 93.669 34.662C96.5 34.662 98.6502 35.4929 101 36.5" stroke="white" stroke-width="3" stroke-linecap="round"/>
<path d="M109.5 3C112.533 -0.466101 102.227 12.0001 100 15.5002C96.5 21.0002 93.3502 26.3483 92.5 34.0001" stroke="white" stroke-width="3" stroke-linecap="round"/>
<path d="M110.5 3.50008C109.5 0.500056 116.778 7.27754 118 8.5C120.5 11 122.4 13.5567 123 14.5C123.955 16 125.331 17.7209 128.142 23.4048C131.124 29.4352 134 36 135.5 43C136.465 47.5 136.5 48.5 137.23 54.5C137.659 58.0276 137.23 61.8537 137.23 65.4136" stroke="white" stroke-width="3" stroke-linecap="round"/>
<path d="M113.013 13.026C113.165 11.6517 112.744 13.3494 112.518 14.0144C111.574 16.7996 110.693 19.5917 109.69 22.3613C108.23 26.3953 105.402 34.8383 108.317 38.7255" stroke="white" stroke-width="3" stroke-linecap="round"/>
<path d="M104.61 16.7327C105.064 13.5578 107.13 10.016 108.317 7.09534" stroke="white" stroke-width="3" stroke-linecap="round"/>
<path d="M108.811 37.9843C107.179 38.827 110.204 39.7874 111.145 40.3181C112.871 41.2909 114.491 42.4239 116.211 43.407C120.02 45.5837 124.203 48.3993 127.153 51.6852C134.696 60.088 140.019 68.7515 143.16 79.746" stroke="white" stroke-width="3" stroke-linecap="round"/>
<path d="M144.643 88.1477C145.604 90.0103 144.532 86.1223 144.395 85.5119C143.834 83 143.5 80 142.5 77" stroke="white" stroke-width="3" stroke-linecap="round"/>
<path d="M147.855 86.418C149.065 85.1327 146.541 87.1702 146.194 87.4613C144.479 88.8995 142.982 90.5722 141.801 92.4722C138.963 97.0372 135.822 101.163 133.536 106.077C131.168 111.169 129.256 116.05 127.482 121.37C125.648 126.872 123.144 132.142 123.144 138.064" stroke="white" stroke-width="3" stroke-linecap="round"/>
<path d="M147.855 87.1593C148.828 83.5918 153.61 85.0069 155.378 86.7749C158.351 89.7477 160.616 91.5381 161.254 95.8631C161.922 100.393 160.796 105.467 160.334 109.99C159.921 114.04 159.336 117.919 158.179 121.837C157.128 125.394 156.01 128.883 156.01 132.628" stroke="white" stroke-width="3" stroke-linecap="round"/>
<path d="M118.202 153.632C117.572 153.553 118.811 152.738 118.888 152.657C120.247 151.229 121.22 149.448 122.76 148.196C125.826 145.7 129.276 143.707 132.768 141.894C136.77 139.816 140.452 137.172 144.602 135.373C147.61 134.07 150.873 133.096 153.786 131.639" stroke="white" stroke-width="3" stroke-linecap="round"/>
<path d="M116.966 173.401C116.018 174.918 119.277 173.355 119.822 172.962C120.659 172.357 121.503 170.731 121.854 169.749C122.777 167.165 122.354 164.776 121.785 162.157C121.141 159.197 119.236 157.498 117.213 155.348C115.447 153.471 114.538 151.003 112.875 149.074C111.205 147.136 109.291 145.296 107.521 143.446C104.008 139.773 99.8433 137.737 95.5774 135.154C93.2985 133.773 90.7906 133.023 88.3014 132.079C84.7493 130.731 81.1221 129.056 77.4423 128.07C71.5974 126.504 65.8703 126.203 59.8425 126.203C56.976 126.203 54.2754 126.122 51.4819 126.821C49.5495 127.304 47.775 128.392 45.7983 128.674" stroke="white" stroke-width="3" stroke-linecap="round"/>
<path d="M120.673 172.907C121.221 171.261 123.986 173.847 124.489 174.142C126.287 175.195 127.526 176.993 128.182 178.961C129.946 184.253 131.759 189.194 134.511 194.103C135.993 196.747 137.793 198.717 139.783 200.968C141.825 203.278 143.249 205.57 146.125 207.008C148.621 208.256 150.78 210.077 153.237 211.429C154.65 212.206 156.377 213.935 155.515 215.657" stroke="white" stroke-width="3" stroke-linecap="round"/>
<path d="M39.8674 127.191C40.3674 126.129 37.08 128.894 36.6412 129.58C35.5318 131.313 34.4733 133.71 34.431 135.785C34.2767 143.343 42.0336 143.611 47.5278 145.724" stroke="white" stroke-width="3" stroke-linecap="round"/>
<path d="M39.868 145.477C40.5677 144.778 39.8213 145.511 39.6071 145.752C38.7244 146.745 38.0265 147.889 37.1635 148.896C35.2939 151.077 34.4584 153.679 32.7567 155.938C28.9789 160.955 28.6895 167.075 29.2422 173.154" stroke="white" stroke-width="3" stroke-linecap="round"/>
<path d="M29.4889 174.142C28.6471 171.804 26.2175 175.25 25.1507 176.133C22.4865 178.338 20.8411 181.566 18.7258 184.274C15.0489 188.98 13.343 196.939 15.8978 202.56" stroke="white" stroke-width="3" stroke-linecap="round"/>
<path d="M15.6508 201.077C14.5668 199.037 15.6475 200.953 16.2823 201.764C17.5323 203.361 18.4829 204.933 20.0439 206.267C22.1142 208.035 23.3913 209.913 26.0295 211.017C30.7895 213.007 35.8974 214.159 40.7188 216.014C49.6606 219.453 60.3615 218.761 69.7955 219.171C80.2893 219.628 90.7601 221.093 101.275 221.093C108.801 221.093 116.192 220.856 123.693 221.34C129.895 221.741 135.721 222.188 141.924 221.285C144.537 220.906 158.873 219.687 156.01 214.916" stroke="white" stroke-width="3" stroke-linecap="round"/>
<path d="M158.728 120.766C158.159 120.463 160.637 121.824 161.199 122.386C162.416 123.603 162.892 124.827 163.423 126.45C164.894 130.945 164.882 135.443 164.027 140.082C163.013 145.584 161.492 151.219 161.213 156.817C161.047 160.124 162.112 167.173 165.153 169.2" stroke="white" stroke-width="3" stroke-linecap="round"/>
<path d="M157.492 214.421C155.993 214.207 160.12 212.835 161.583 212.444C164.066 211.782 166.433 210.673 168.612 209.342C171.935 207.311 175.902 206.347 178.442 203.054C180.568 200.298 182.203 197.261 182.203 193.65C182.203 190.87 181.784 188.748 181.201 186.127C180.749 184.091 178.663 182.801 177.261 181.556C176.02 180.452 175.061 178.153 173.664 177.355C171.092 175.884 170.017 172.94 168.118 170.93C167.443 170.215 166.46 169.048 165.949 168.212C165.472 167.431 162.963 165.997 164.659 166.482" stroke="white" stroke-width="3" stroke-linecap="round"/>
<path d="M162.435 164.999C162.568 164.866 163.08 165.815 163.121 165.878C163.629 166.657 164.196 167.384 164.851 168.047C165.908 169.118 167.052 170.111 168.118 171.177" stroke="white" stroke-width="3" stroke-linecap="round"/>
<path d="M8.5 113.5C8 113.5 5.84793 114.056 3.5 116.5C2.84793 117.179 1.95695 119.557 1.71644 120.519C1.16235 122.736 1.83136 125.721 3.65214 127.177C5.52285 128.674 9.43781 128.057 11.4999 129.5C14.2749 131.443 14.7334 133.429 14.6622 136.774C14.5911 140.118 13.664 143 12.4999 146.5C11.0557 150.842 7.89261 156.371 6.50758 161.416C5.12255 166.462 4.0502 172.5 5.49986 177.5C7.0235 182.755 11.944 186.5 15.4999 188" stroke="white" stroke-width="3" stroke-linecap="round"/>
<path d="M118.943 161.54C120.412 160.887 120.903 161.369 121.414 162.775" stroke="white" stroke-width="3" stroke-linecap="round"/>
<path d="M20.5929 178.59C20.534 180.416 18.7772 177.112 18.4238 176.366C17.8173 175.086 17.8747 173.063 17.8747 171.671C17.8747 167.032 19.5813 162.073 21.0871 157.723C21.7952 155.678 22.4499 153.705 23.3111 151.71C24.2498 149.536 26.1449 147.714 26.7707 145.368C27.1652 143.888 27.828 142.009 28.3906 140.563C29.0736 138.807 29.0969 136.898 29.434 135.044C30.0688 131.552 28.6353 125.983 26.8668 122.99C26.0478 121.604 24.5463 120.364 23.3111 119.394C22.2893 118.591 21.6883 117.426 20.5929 116.62C19.1823 115.583 18.4437 115.409 17 114.5C15.7802 113.732 15 113.5 13 113C11.8994 112.725 10.5 113 8.5 113.5C7.10922 113.848 7 114 6 114.5C5 115 4 116 3.5 116.5" stroke="white" stroke-width="3" stroke-linecap="round"/>
<path d="M95.9999 93C95.2852 92.91 96.1243 92.167 96.5 92C97.2687 91.6584 98.1654 91.9919 98.7898 92.3487C100.267 93.193 97 93 96.5 93" stroke="white" stroke-width="3" stroke-linecap="round"/>
<path d="M92.4975 99.4855C90.8649 99.6545 93.6632 102.218 94.9644 101.985C96.2797 101.749 96.9781 100.606 97.5205 99.7449C97.5426 99.7099 98.7514 100.619 99.0661 100.759C99.8559 101.11 100.817 101.33 101.711 101.089C103.417 100.63 104 99.305 104 98" stroke="white" stroke-linecap="round"/>
<path d="M33.69 106.187C33.2502 107.192 34.6605 105.865 35.0491 105.693C35.6647 105.419 36.3227 105.347 36.9574 105.143C37.893 104.843 41.1194 103.528 41.7074 104.704C43.7328 108.755 36.3613 109.693 34.1842 111.87" stroke="white" stroke-width="2" stroke-linecap="square"/>
<path d="M41.1034 122.249C39.8558 121.536 43.2225 118.941 43.7667 118.735C45.5932 118.042 47.3389 116.757 48.5167 119.407C48.989 120.47 46.6876 122.176 46.1829 123.114C45.9816 123.488 45.9134 124.623 45.3729 124.706C44.0907 124.904 42.7502 124.637 41.8447 123.732" stroke="white" stroke-width="2" stroke-linecap="square"/>
<path d="M143.16 90.3717C145.53 90.858 142.408 90.3717 141.787 90.3717C140.713 90.3717 139.192 90.8356 138.341 91.4974C137.718 91.9818 136.849 93.4924 137.97 94.0235C139.909 94.9416 141.563 93.1467 143.16 92.3486" stroke="white" stroke-width="2" stroke-linecap="square"/>
<path d="M128.086 121.261C128.03 120.355 125.746 122.755 125.107 123.114C121.373 125.214 117.28 126.182 113.507 128.18" stroke="white" stroke-width="2" stroke-linecap="round"/>
<path d="M124.627 124.226C124.291 127.58 122.991 130.95 122.65 134.357" stroke="white" stroke-width="2" stroke-linecap="round"/>
<path d="M19 133.5C19 132 20.9636 129.776 21.5 129.5C23 128.5 23.2299 128.5 25 128.5" stroke="white" stroke-width="2" stroke-linecap="round"/>
<path d="M16 150C15.9637 150.337 15.7963 148.844 16 148.5C16.9019 146.978 18.4347 147.666 20 149C21.2047 150.027 21.5 151 22 152.5" stroke="white" stroke-width="2" stroke-linecap="round"/>
<path d="M9.5 165.5C9.5 164 11.2094 163.56 11.5 163.5C12.9355 163.205 16.483 167.362 17.5001 168.5" stroke="white" stroke-width="2" stroke-linecap="round"/>
<path d="M11 163.5C12.3253 161.881 11.5 161 12.5 157.5C12.9478 156.577 13.7644 155.168 14.5 154.5C14.934 154.106 14.7365 155.217 15 155.5C15.996 156.568 19.0463 157.098 19 159C18.9509 161.015 16 165 17 166.5" stroke="white" stroke-width="2" stroke-linecap="round"/>
<path d="M16 148.5C16.2995 146.59 18.2241 144.212 19.1652 142.676C19.5732 142.01 19.8781 141.325 20.3184 140.687C20.3585 140.629 20.4268 141.952 20.5 142C21.638 142.754 22.9098 141.389 24.176 142.406C26.0354 143.898 25.3347 146.448 25 148" stroke="white" stroke-width="2" stroke-linecap="round"/>
<path d="M6.49987 119.5C7.49975 117.5 5.49958 121 5.99976 122.5C6.49987 125 8.57566 125.357 10.4998 125.5C15.0355 125.837 16.0165 130.916 19.1101 133.875" stroke="white" stroke-width="2" stroke-linecap="round"/>
<path d="M6 122C6 119.716 7.79729 116.619 10 116C13.0802 115.135 16.6225 118.667 18.7535 120.623C21.048 122.73 23.2504 125.446 24.794 128.247" stroke="white" stroke-width="2" stroke-linecap="round"/>
<path d="M151.184 86.9866C152.111 86.3498 152.393 86.3918 151.69 87.4463C150.559 89.1436 149.811 90.9207 148.978 92.7796" stroke="white" stroke-width="2" stroke-linecap="round"/>
<path d="M158.633 92.7797C157.89 89.717 156.094 94.1047 155.322 95.5383" stroke="white" stroke-width="2" stroke-linecap="round"/>
<path d="M147.89 101.208C147.046 100.629 145.629 101.265 145.053 102.006C143.943 103.433 143.658 105.348 144.014 107.074C144.369 108.795 145.478 110.51 147.216 111.036C148.76 111.503 150.764 110.797 151.871 109.69C153.637 107.924 154.258 105.659 152.881 103.449C152.47 102.79 151.969 101.971 151.246 101.641C150.144 101.138 148.9 101.069 147.717 101.208" stroke="white" stroke-width="1.5" stroke-linecap="round"/>
<path d="M150.745 96.621C148.978 96.3685 149.971 100.769 151.871 99.3906C152.54 98.9048 153.281 98.1266 152.63 97.3134C151.897 96.3971 151.216 96.3486 150.14 96.7076" stroke="white" stroke-width="1.5" stroke-linecap="round"/>
<path d="M144.255 97.3999C144.362 96.9012 144.645 96.3211 143.87 96.5344C142.96 96.7851 142.041 98.3115 142.586 99.2126C144.109 101.729 146.991 94.82 143.736 96.4479" stroke="white" stroke-width="1.5" stroke-linecap="round"/>
<path d="M155.419 101.554C154.954 101.258 154.827 101.98 154.818 102.251C154.792 103.025 155.04 104.332 156.011 104.454C157.326 104.618 157.466 101.04 155.419 101.381" stroke="white" stroke-width="1.5" stroke-linecap="round"/>
<path d="M34.9721 107.93C34.9721 108.287 35.3282 107.302 35.5806 107.049C35.7173 106.912 35.2466 108.442 35.161 108.759C34.9833 109.417 35.7197 107.908 35.7746 107.804C36.0262 107.329 36.8115 106.112 36.0841 107.269C35.9391 107.5 35.0829 109.092 35.6383 108.203C35.739 108.042 36.6804 106.805 36.2729 107.385C35.7813 108.084 34.8944 109.085 34.7046 109.939C34.4825 110.939 35.8301 108.227 36.4408 107.406C37.1571 106.442 35.6438 108.365 35.5124 108.575C35.4139 108.733 34.9572 109.335 35.0351 109.546C35.0724 109.647 35.7516 108.873 35.7694 108.853C36.3707 108.191 37.9481 106.013 37.4111 106.729C37.1692 107.052 36.9562 107.401 36.724 107.731C36.629 107.866 35.8851 109.019 36.4827 108.413C37.0899 107.797 38.3267 105.488 37.8203 106.189C37.5188 106.606 37.2674 107.057 37.0073 107.5C36.9442 107.608 36.4206 108.42 36.5247 108.36C37.1972 107.973 38.1942 105.746 37.7363 106.372C37.2864 106.988 36.078 108.883 36.6611 108.392C37.658 107.551 38.3415 106.304 39.1368 105.281C39.8838 104.321 37.5358 107.178 37.1122 108.318C36.9419 108.777 37.4064 108.144 37.4426 108.093C37.9226 107.415 38.4119 106.744 38.8798 106.058C38.8962 106.034 39.6097 104.973 39.2312 105.455C38.6465 106.199 38.1732 107.033 37.7311 107.867C37.7134 107.901 37.1465 108.952 37.322 108.964C37.7428 108.992 38.5759 107.713 38.8116 107.437C39.3066 106.859 39.8101 106.278 40.2173 105.633C40.513 105.164 40.135 106.077 40.1019 106.147C39.8232 106.732 39.4419 107.229 39.1001 107.773C38.7827 108.278 39.0094 108.25 39.3204 107.857C39.8541 107.182 41.063 104.89 40.595 105.612C40.1462 106.304 38.8794 108.361 39.5197 107.841C39.8049 107.609 40.7454 105.664 40.1753 106.818C39.4952 108.196 41.3603 105.06 40.7104 105.685C40.3418 106.04 40.593 105.931 40.7681 105.58C40.9804 105.156 40.4421 105.584 40.3747 105.874C40.075 107.163 41.2095 105.056 40.7313 105.853" stroke="white" stroke-width="1.5" stroke-linecap="round"/>
<path d="M36.8608 109.441C36.5338 109.132 35.545 109.346 35.7908 109.556C36.559 110.215 37.9792 108.635 38.4658 108.214" stroke="white" stroke-width="1.5" stroke-linecap="round"/>
<path d="M63.8613 80.3929C63.6785 80.3929 63.1368 80.8631 63 81M63 81C62.5 81.5 61.8911 82.05 61.277 82.8517C59.8015 84.7781 59.0364 87.5435 58.5643 89.9037C57.9759 92.8459 58.9419 96.0433 60.1639 98.7065C61.124 100.799 64.1884 103.728 66.7025 103.554C69.1737 103.382 72.1359 101.428 73.2627 99.2577C73.9183 97.9951 74.6745 96.8554 74.9163 95.4318C75.2309 93.5789 75.103 91.6256 74.873 89.7686C74.4818 86.6096 73.4673 83.5176 71.0471 81.3711C69.9745 80.4197 68.7546 80.0318 67.3834 79.7715C65.4927 79.4127 64.5037 79.8572 63 81Z" stroke="white" stroke-width="2" stroke-linecap="round"/>
<path d="M116.216 70.7968C113.5 72 112.794 73.4713 112 75C110.452 77.979 110.53 81.5279 110.954 84.8296C111.167 86.4961 111.678 88.2067 112.294 89.7687C112.912 91.3347 113.777 92.3929 114.947 93.5838C116.963 95.6348 118.944 94.9088 120.994 93.4109C123.107 91.8666 124.704 89.2331 125.085 86.6291C125.506 83.7457 125.726 80.612 125.036 77.7506C124.726 76.4663 124.215 75.2294 123.5 74C122.715 72.7294 122.179 72.2678 121.194 71.5416C119.581 70.3528 116.882 69.9584 115 71.5" stroke="white" stroke-width="2" stroke-linecap="round"/>
<path d="M61.91 86.958C61.6077 86.4743 60.9691 88.227 60.9393 88.3686C60.7434 89.2993 61.3294 90.7694 62.3967 89.7688C62.6968 89.4875 62.8449 89.0352 63.0187 88.6757C63.3085 88.0765 63.6177 87.4837 63.4924 86.7967C63.4205 86.4026 63.0122 86.2933 62.67 86.4479C62.106 86.7029 61.7498 87.2481 61.4416 87.7544" stroke="white" stroke-linecap="round"/>
<path d="M113.932 78.558C114.092 77.9961 113.561 78.8437 113.509 79.0118C113.306 79.6653 112.39 81.7298 113.662 81.9801C115.072 82.2575 116 79.563 116 78.5626C116 78.1186 115.751 77.9342 115.338 78.0208C114.313 78.2357 113.921 78.9526 113.446 79.8083" stroke="white" stroke-linecap="round"/>
<path d="M61.7745 89.3228C61.8332 89.448 61.7672 89.5609 61.7768 89.5081C61.8032 89.3626 61.7626 89.3378 61.7351 89.2139C61.673 88.9345 61.8411 88.7427 61.9829 88.5097C62.0712 88.3647 62.1009 88.0837 62.2146 87.97C62.2971 87.8875 62.3931 87.8096 62.4647 87.7175C62.756 87.3431 61.834 88.4272 61.5428 88.8016C61.396 88.9904 61.8491 88.3847 61.8995 88.2943C62.0255 88.0685 62.187 87.7094 62.4091 87.5531C62.5755 87.436 63.2068 86.704 63.016 87.3956C62.9688 87.5666 62.9378 87.7419 62.8585 87.9052C62.7621 88.1036 62.7603 88.3375 62.65 88.5213C62.5575 88.6755 62.5021 88.8323 62.3999 88.9799C62.3452 89.0589 62.2748 89.3354 62.2748 89.2394" stroke="white" stroke-linecap="round"/>
<path d="M113.455 81.1923C113.473 80.8329 113.704 80.5957 113.895 80.3121C114.058 80.0692 114.158 79.8155 114.372 79.6079C114.62 79.3663 115.032 79.2596 115.173 78.9408C115.199 78.8822 115.379 78.5591 115.488 78.6582C115.742 78.8885 115.353 79.3776 115.298 79.6404C115.133 80.432 114.764 80.7896 114.205 81.3174C114.132 81.3863 114.077 81.3636 113.997 81.3591C113.816 81.3491 113.993 81.0157 114.038 80.9097C114.129 80.7003 114.3 80.5311 114.474 80.3909C114.561 80.32 114.747 80.2742 114.747 80.15" stroke="white" stroke-linecap="round"/>
</svg>
