<?xml version="1.0" encoding="utf-8"?><!-- Uploaded to: SVG Repo, www.svgrepo.com, Generator: SVG Repo Mixer Tools -->
<svg width="800px" height="800px" viewBox="0 0 400 400" fill="none" xmlns="http://www.w3.org/2000/svg">
<path d="M143.063 168.391C137.16 131.449 151.858 98.6331 189.534 96.1059C220.56 94.0247 243.85 122.951 235.666 153.711C235.393 154.735 230.694 163.051 231.224 163.621C240.265 173.329 254.687 178.64 264.028 189.669C293.158 224.079 287.913 273.161 245.576 290.207C209.762 304.631 155.673 312.403 123.927 284.703C93.3085 257.99 112.74 190.764 146.478 176.827" stroke="#000000" stroke-opacity="0.9" stroke-width="16" stroke-linecap="round" stroke-linejoin="round"/>
<path d="M201.659 126.405C201.659 125.714 201.659 125.025 201.659 124.337" stroke="#000000" stroke-opacity="0.9" stroke-width="16" stroke-linecap="round" stroke-linejoin="round"/>
<path d="M181.99 129.251C182.333 127.797 182.157 126.301 182.265 124.817" stroke="#000000" stroke-opacity="0.9" stroke-width="16" stroke-linecap="round" stroke-linejoin="round"/>
<path d="M190.865 144.768C211.037 133.823 234.317 123.69 253.562 111.517" stroke="#000000" stroke-opacity="0.9" stroke-width="16" stroke-linecap="round" stroke-linejoin="round"/>
<path opacity="0.503384" d="M152.18 180.954C163.557 186.233 226.382 183.664 221.424 162.293C219.632 154.565 160.986 162.293 152.18 173.625C139.362 190.121 166.265 249.888 167.453 254.495" stroke="#000000" stroke-opacity="0.9" stroke-width="16" stroke-linecap="round" stroke-linejoin="round"/>
<path d="M128.17 223.461C117.922 216.854 105.8 213.789 94.252 210.161" stroke="#000000" stroke-opacity="0.9" stroke-width="16" stroke-linecap="round" stroke-linejoin="round"/>
<path d="M95.0066 197.969C93.6221 202.948 96.866 209.996 96.9246 210.161" stroke="#000000" stroke-opacity="0.9" stroke-width="16" stroke-linecap="round" stroke-linejoin="round"/>
<path d="M92.1949 220.173C90.9456 222.54 85.4858 223.245 85 223.425" stroke="#000000" stroke-opacity="0.9" stroke-width="16" stroke-linecap="round" stroke-linejoin="round"/>
<path d="M284.396 201.294C295.443 193.978 303.471 182.538 313.175 173.585" stroke="#000000" stroke-opacity="0.9" stroke-width="16" stroke-linecap="round" stroke-linejoin="round"/>
<path d="M294.981 174.693C295.82 178.009 296.597 181.349 297.448 184.669" stroke="#000000" stroke-opacity="0.9" stroke-width="16" stroke-linecap="round" stroke-linejoin="round"/>
<path d="M305.983 190.223C308.851 190.493 311.561 189.611 314.206 189.039" stroke="#000000" stroke-opacity="0.9" stroke-width="16" stroke-linecap="round" stroke-linejoin="round"/>
</svg>