<?xml version="1.0" ?><!-- Uploaded to: SVG Repo, www.svgrepo.com, Generator: SVG Repo Mixer Tools -->
<svg fill="#000000" width="800px" height="800px" viewBox="0 0 750 750" id="Layer_1" xmlns="http://www.w3.org/2000/svg"><path d="M646.38,392.53c-24.61-.29-49.06,1.64-73.49,3.85-7.63-12.29-13.24-25.68-17.8-39.42-7.56-24.76-22.77-46.57-43.73-61.81-20.17-18.65-42.32-27.18-69.86-26.19-46.72,2.97-96.06,3.07-137.97,26.67-33.3,20.73-63.23,48.65-81.28,83.85-3.41,8.37-10.94,22.38-11.47,33.88-36.98-.46-74-.24-110.82-3.45-13.05,1.07-14.23,22.64-3.09,27.54,8.64,3.84,18.49,4.1,27.81,4.61,58.05,.4,116.06-.32,173.85-6.24,28.9,.42,57.83,3.86,86.86,3.39,55.84,.9,110.91-11.7,166.73-9.97,31.41,.58,62.84,2.47,94.25,1.13,19.17-1.47,19.11-36.59,0-37.85Zm-134.02,8.8c-29.97,.75-59.97-.27-89.92,1.5-25.53,1.16-50.98,3.18-76.42,5.62-30.32,4.6-60.62,8.44-91.38,6.03-6.82-.3-13.64-.52-20.46-.69,.22-.67,.43-1.33,.63-1.94,4.2-12.23,10.49-23.7,17.83-34.32,26.02-38.73,66.63-65.29,110.59-79.58,21.8-6.38,44.53-5.6,66.94-3.97,19.32,2.32,40.96,8.32,55.48,22.2,12.46,10.55,26.76,19.35,37.02,32.22,11.3,15.12,17.16,33.16,24.73,50.31-11.67,1.04-23.35,1.99-35.05,2.63Z"/><path d="M532.89,473.94c-28.49-.3-56.84,2.77-85.21,4.88-86.81,6.31-173.5-7.87-259.81-15.45-13.03,1.04-14.25,22.71-3.09,27.53,35.05,9.84,72.54,7.15,108.56,11.05,34.77,3.48,69.56-.73,104.4-.23,35.02-.38,69.8,3.91,104.7,6.06,10.15,.46,20.29,.71,30.45,.71,17.45-1,17.45-33.55,0-34.56Z"/><path d="M449.1,534.91c-20.94,0-41.87-.32-62.81-.68-22.12,.05-44.37-1.59-66.41-.93-9.52,2.31-11.42,15.91-6.5,23.19,4.86,7.23,15.09,5.88,22.74,6.91,37.64,1.39,75.31-.7,112.97-.37,7.07,0,10.68-7.98,10.68-14.05s-3.6-14.06-10.68-14.06Z"/><path d="M425.43,585.43c-4.69-4.14-11.05-1.59-16.61-1.38-13.44,1.65-27.58,1.27-40.43,5.77-13.05,5.87-8.43,30.24,7.1,27.69,15.07-1.8,30.27-2.56,45.36-4.33,11.46-2.85,12.82-20.69,4.58-27.75Z"/><path d="M152.98,266.72c14.06,4.28,23.99,15.9,33.87,26.13,14,13.53,25.61-12.91,15.14-22.92-14.1-14.47-30.62-34.08-52.77-32.26-14.08,4.19-11.13,28.23,3.76,29.06Z"/><path d="M297,215.93c8.54,19.5,26.99,2.71,20.94-12.81-5.64-16.81-9.2-34.49-16.8-50.55-4.06-9.35-15.99-7.65-18.66,1.73-1.95,5.57-.46,11.48,1.07,16.98,4.92,15.57,8.27,28.26,13.46,44.65Z"/><path d="M428.81,223.56c15.57,6.96,16.94-16.35,21.91-25.71,3.27-7.4,7.57-14.33,11.33-21.48,4.1-7.8,8.54-15.63,11.37-24,4.73-10.32-6.25-27.48-16.74-16.57-10.55,15.94-19.38,33.4-27.32,50.82-3.96,11.39-13.41,27.9-.54,36.94Z"/><path d="M595.78,260c6.86-9.93,18.09-23.69,8.54-35.41-11.21-11.28-19.72,8.2-25.87,15.6-7.7,10.32-20.76,23.49-10.03,36.33,12.02,12.11,20.58-8.82,27.35-16.52Z"/></svg>